<svg height="480pt" viewBox="0 0 480 480" width="480pt" xmlns="http://www.w3.org/2000/svg"><path d="m136 152h.96875c35.558594 0 69.992188-12.464844 97.304688-35.230469l5.726562-4.769531 5.71875 4.769531c27.320312 22.765625 61.753906 35.230469 97.3125 35.230469h.96875v134.078125c0 26.25-12.878906 50.832031-34.464844 65.777344l-69.535156 48.144531-69.535156-48.144531c-21.585938-14.933594-34.464844-39.519531-34.464844-65.777344zm0 0" fill="#274557"/><path d="m240 400-69.535156-48.144531c-21.585938-14.933594-34.464844-39.519531-34.464844-65.777344v-134.078125h.96875c35.558594 0 69.992188-12.464844 97.304688-35.230469l5.726562-4.769531" fill="#375870"/><path d="m312 256c0 39.765625-32.234375 72-72 72s-72-32.234375-72-72 32.234375-72 72-72 72 32.234375 72 72zm0 0" fill="#a4bdca"/><path d="m24 135.265625c-15.375 31.644531-24 67.183594-24 104.734375 0 132.550781 107.449219 240 240 240s240-107.449219 240-240-107.449219-240-240-240c-64.238281 0-122.585938 25.238281-165.65625 66.34375l-26.34375-26.34375v80h80l-31.023438-31.023438c37.28125-35.3125 87.625-56.976562 143.023438-56.976562 114.871094 0 208 93.128906 208 208s-93.128906 208-208 208-208-93.128906-208-208c0-34.632812 8.464844-67.28125 23.433594-96" fill="#db4841"/><path d="m240 304c-2.105469 0-4.144531-.832031-5.65625-2.34375l-32-32 11.3125-11.3125 23.421875 23.425781 27.496094-68.738281 14.859375 5.945312-32 80c-1 2.496094-3.1875 4.328126-5.824219 4.863282-.539063.105468-1.074219.160156-1.609375.160156zm0 0" fill="#86a63c"/></svg>